<mxfile host="65bd71144e" pages="2">
    <diagram id="C5RBs43oDa-KdzZeNtuy" name="Page-1">
        <mxGraphModel dx="1893" dy="731" grid="1" gridSize="10" guides="1" tooltips="1" connect="1" arrows="1" fold="1" page="1" pageScale="1" pageWidth="827" pageHeight="1169" math="0" shadow="0">
            <root>
                <mxCell id="WIyWlLk6GJQsqaUBKTNV-0"/>
                <mxCell id="WIyWlLk6GJQsqaUBKTNV-1" parent="WIyWlLk6GJQsqaUBKTNV-0"/>
                <mxCell id="zkfFHV4jXpPFQw0GAbJ--0" value="Department" style="swimlane;fontStyle=2;align=center;verticalAlign=top;childLayout=stackLayout;horizontal=1;startSize=26;horizontalStack=0;resizeParent=1;resizeLast=0;collapsible=1;marginBottom=0;rounded=0;shadow=0;strokeWidth=1;" parent="WIyWlLk6GJQsqaUBKTNV-1" vertex="1">
                    <mxGeometry x="-230" y="160" width="160" height="90" as="geometry">
                        <mxRectangle x="230" y="140" width="160" height="26" as="alternateBounds"/>
                    </mxGeometry>
                </mxCell>
                <mxCell id="zkfFHV4jXpPFQw0GAbJ--1" value="DepartmentId : string&#10;" style="text;align=left;verticalAlign=top;spacingLeft=4;spacingRight=4;overflow=hidden;rotatable=0;points=[[0,0.5],[1,0.5]];portConstraint=eastwest;" parent="zkfFHV4jXpPFQw0GAbJ--0" vertex="1">
                    <mxGeometry y="26" width="160" height="26" as="geometry"/>
                </mxCell>
                <mxCell id="zkfFHV4jXpPFQw0GAbJ--2" value="Name : string" style="text;align=left;verticalAlign=top;spacingLeft=4;spacingRight=4;overflow=hidden;rotatable=0;points=[[0,0.5],[1,0.5]];portConstraint=eastwest;rounded=0;shadow=0;html=0;" parent="zkfFHV4jXpPFQw0GAbJ--0" vertex="1">
                    <mxGeometry y="52" width="160" height="26" as="geometry"/>
                </mxCell>
                <mxCell id="5X6vWWqTuCtD_axQP573-7" style="edgeStyle=none;curved=1;rounded=0;orthogonalLoop=1;jettySize=auto;html=1;entryX=0;entryY=0.5;entryDx=0;entryDy=0;fontSize=12;startSize=8;endSize=8;" parent="WIyWlLk6GJQsqaUBKTNV-1" source="5X6vWWqTuCtD_axQP573-0" target="zkfFHV4jXpPFQw0GAbJ--1" edge="1">
                    <mxGeometry relative="1" as="geometry"/>
                </mxCell>
                <mxCell id="5X6vWWqTuCtD_axQP573-0" value="CPC" style="swimlane;fontStyle=2;align=center;verticalAlign=top;childLayout=stackLayout;horizontal=1;startSize=26;horizontalStack=0;resizeParent=1;resizeLast=0;collapsible=1;marginBottom=0;rounded=0;shadow=0;strokeWidth=1;" parent="WIyWlLk6GJQsqaUBKTNV-1" vertex="1">
                    <mxGeometry x="-550" y="170" width="160" height="160" as="geometry">
                        <mxRectangle x="230" y="140" width="160" height="26" as="alternateBounds"/>
                    </mxGeometry>
                </mxCell>
                <mxCell id="5X6vWWqTuCtD_axQP573-1" value="CpcId  : string" style="text;align=left;verticalAlign=top;spacingLeft=4;spacingRight=4;overflow=hidden;rotatable=0;points=[[0,0.5],[1,0.5]];portConstraint=eastwest;" parent="5X6vWWqTuCtD_axQP573-0" vertex="1">
                    <mxGeometry y="26" width="160" height="26" as="geometry"/>
                </mxCell>
                <mxCell id="5X6vWWqTuCtD_axQP573-2" value="CurrentOrganization : string" style="text;align=left;verticalAlign=top;spacingLeft=4;spacingRight=4;overflow=hidden;rotatable=0;points=[[0,0.5],[1,0.5]];portConstraint=eastwest;rounded=0;shadow=0;html=0;" parent="5X6vWWqTuCtD_axQP573-0" vertex="1">
                    <mxGeometry y="52" width="160" height="26" as="geometry"/>
                </mxCell>
                <mxCell id="5X6vWWqTuCtD_axQP573-4" value="Process: string" style="text;align=left;verticalAlign=top;spacingLeft=4;spacingRight=4;overflow=hidden;rotatable=0;points=[[0,0.5],[1,0.5]];portConstraint=eastwest;rounded=0;shadow=0;html=0;" parent="5X6vWWqTuCtD_axQP573-0" vertex="1">
                    <mxGeometry y="78" width="160" height="26" as="geometry"/>
                </mxCell>
                <mxCell id="5X6vWWqTuCtD_axQP573-5" value="CoastCenter : string" style="text;align=left;verticalAlign=top;spacingLeft=4;spacingRight=4;overflow=hidden;rotatable=0;points=[[0,0.5],[1,0.5]];portConstraint=eastwest;rounded=0;shadow=0;html=0;" parent="5X6vWWqTuCtD_axQP573-0" vertex="1">
                    <mxGeometry y="104" width="160" height="26" as="geometry"/>
                </mxCell>
                <mxCell id="5X6vWWqTuCtD_axQP573-6" value="DepartmentId : string" style="text;align=left;verticalAlign=top;spacingLeft=4;spacingRight=4;overflow=hidden;rotatable=0;points=[[0,0.5],[1,0.5]];portConstraint=eastwest;rounded=0;shadow=0;html=0;" parent="5X6vWWqTuCtD_axQP573-0" vertex="1">
                    <mxGeometry y="130" width="160" height="26" as="geometry"/>
                </mxCell>
                <mxCell id="5X6vWWqTuCtD_axQP573-8" value="1" style="text;html=1;align=center;verticalAlign=middle;resizable=0;points=[];autosize=1;strokeColor=none;fillColor=none;fontSize=16;" parent="WIyWlLk6GJQsqaUBKTNV-1" vertex="1">
                    <mxGeometry x="-280" y="160" width="30" height="30" as="geometry"/>
                </mxCell>
                <mxCell id="5X6vWWqTuCtD_axQP573-9" value="1" style="text;html=1;align=center;verticalAlign=middle;resizable=0;points=[];autosize=1;strokeColor=none;fillColor=none;fontSize=16;" parent="WIyWlLk6GJQsqaUBKTNV-1" vertex="1">
                    <mxGeometry x="-380" y="190" width="30" height="30" as="geometry"/>
                </mxCell>
                <mxCell id="5X6vWWqTuCtD_axQP573-10" value="Improvement" style="swimlane;fontStyle=0;childLayout=stackLayout;horizontal=1;startSize=30;horizontalStack=0;resizeParent=1;resizeParentMax=0;resizeLast=0;collapsible=1;marginBottom=0;whiteSpace=wrap;html=1;fontSize=16;" parent="WIyWlLk6GJQsqaUBKTNV-1" vertex="1">
                    <mxGeometry x="100" y="50" width="220" height="710" as="geometry"/>
                </mxCell>
                <mxCell id="5X6vWWqTuCtD_axQP573-11" value="ImprovementId : string" style="text;strokeColor=none;fillColor=none;align=left;verticalAlign=middle;spacingLeft=4;spacingRight=4;overflow=hidden;points=[[0,0.5],[1,0.5]];portConstraint=eastwest;rotatable=0;whiteSpace=wrap;html=1;fontSize=16;" parent="5X6vWWqTuCtD_axQP573-10" vertex="1">
                    <mxGeometry y="30" width="220" height="30" as="geometry"/>
                </mxCell>
                <mxCell id="5X6vWWqTuCtD_axQP573-48" value="Assignee&amp;nbsp;: string" style="text;strokeColor=none;fillColor=none;align=left;verticalAlign=middle;spacingLeft=4;spacingRight=4;overflow=hidden;points=[[0,0.5],[1,0.5]];portConstraint=eastwest;rotatable=0;whiteSpace=wrap;html=1;fontSize=16;" parent="5X6vWWqTuCtD_axQP573-10" vertex="1">
                    <mxGeometry y="60" width="220" height="30" as="geometry"/>
                </mxCell>
                <mxCell id="5X6vWWqTuCtD_axQP573-53" value="DepartmentId : string" style="text;strokeColor=none;fillColor=none;align=left;verticalAlign=middle;spacingLeft=4;spacingRight=4;overflow=hidden;points=[[0,0.5],[1,0.5]];portConstraint=eastwest;rotatable=0;whiteSpace=wrap;html=1;fontSize=16;" parent="5X6vWWqTuCtD_axQP573-10" vertex="1">
                    <mxGeometry y="90" width="220" height="30" as="geometry"/>
                </mxCell>
                <mxCell id="5X6vWWqTuCtD_axQP573-12" value="Summary : string" style="text;strokeColor=none;fillColor=none;align=left;verticalAlign=middle;spacingLeft=4;spacingRight=4;overflow=hidden;points=[[0,0.5],[1,0.5]];portConstraint=eastwest;rotatable=0;whiteSpace=wrap;html=1;fontSize=16;" parent="5X6vWWqTuCtD_axQP573-10" vertex="1">
                    <mxGeometry y="120" width="220" height="30" as="geometry"/>
                </mxCell>
                <mxCell id="5X6vWWqTuCtD_axQP573-13" value="Description : string" style="text;strokeColor=none;fillColor=none;align=left;verticalAlign=middle;spacingLeft=4;spacingRight=4;overflow=hidden;points=[[0,0.5],[1,0.5]];portConstraint=eastwest;rotatable=0;whiteSpace=wrap;html=1;fontSize=16;" parent="5X6vWWqTuCtD_axQP573-10" vertex="1">
                    <mxGeometry y="150" width="220" height="40" as="geometry"/>
                </mxCell>
                <mxCell id="5X6vWWqTuCtD_axQP573-19" value="MajorBenefitsId : string&amp;nbsp;" style="text;strokeColor=none;fillColor=none;align=left;verticalAlign=middle;spacingLeft=4;spacingRight=4;overflow=hidden;points=[[0,0.5],[1,0.5]];portConstraint=eastwest;rotatable=0;whiteSpace=wrap;html=1;fontSize=16;" parent="5X6vWWqTuCtD_axQP573-10" vertex="1">
                    <mxGeometry y="190" width="220" height="40" as="geometry"/>
                </mxCell>
                <mxCell id="5X6vWWqTuCtD_axQP573-25" value="DueDate : DateTime" style="text;strokeColor=none;fillColor=none;align=left;verticalAlign=middle;spacingLeft=4;spacingRight=4;overflow=hidden;points=[[0,0.5],[1,0.5]];portConstraint=eastwest;rotatable=0;whiteSpace=wrap;html=1;fontSize=16;" parent="5X6vWWqTuCtD_axQP573-10" vertex="1">
                    <mxGeometry y="230" width="220" height="40" as="geometry"/>
                </mxCell>
                <mxCell id="5X6vWWqTuCtD_axQP573-26" value="AffectEntities : string" style="text;strokeColor=none;fillColor=none;align=left;verticalAlign=middle;spacingLeft=4;spacingRight=4;overflow=hidden;points=[[0,0.5],[1,0.5]];portConstraint=eastwest;rotatable=0;whiteSpace=wrap;html=1;fontSize=16;" parent="5X6vWWqTuCtD_axQP573-10" vertex="1">
                    <mxGeometry y="270" width="220" height="40" as="geometry"/>
                </mxCell>
                <mxCell id="5X6vWWqTuCtD_axQP573-33" value="EstimatedHours : TimeStamp" style="text;strokeColor=none;fillColor=none;align=left;verticalAlign=middle;spacingLeft=4;spacingRight=4;overflow=hidden;points=[[0,0.5],[1,0.5]];portConstraint=eastwest;rotatable=0;whiteSpace=wrap;html=1;fontSize=16;" parent="5X6vWWqTuCtD_axQP573-10" vertex="1">
                    <mxGeometry y="310" width="220" height="40" as="geometry"/>
                </mxCell>
                <mxCell id="5X6vWWqTuCtD_axQP573-34" value="SourceTypeId : string" style="text;strokeColor=none;fillColor=none;align=left;verticalAlign=middle;spacingLeft=4;spacingRight=4;overflow=hidden;points=[[0,0.5],[1,0.5]];portConstraint=eastwest;rotatable=0;whiteSpace=wrap;html=1;fontSize=16;" parent="5X6vWWqTuCtD_axQP573-10" vertex="1">
                    <mxGeometry y="350" width="220" height="40" as="geometry"/>
                </mxCell>
                <mxCell id="5X6vWWqTuCtD_axQP573-42" value="IdeaSourceId : string" style="text;strokeColor=none;fillColor=none;align=left;verticalAlign=middle;spacingLeft=4;spacingRight=4;overflow=hidden;points=[[0,0.5],[1,0.5]];portConstraint=eastwest;rotatable=0;whiteSpace=wrap;html=1;fontSize=16;" parent="5X6vWWqTuCtD_axQP573-10" vertex="1">
                    <mxGeometry y="390" width="220" height="40" as="geometry"/>
                </mxCell>
                <mxCell id="5X6vWWqTuCtD_axQP573-57" value="IdeaSourceId : string" style="text;strokeColor=none;fillColor=none;align=left;verticalAlign=middle;spacingLeft=4;spacingRight=4;overflow=hidden;points=[[0,0.5],[1,0.5]];portConstraint=eastwest;rotatable=0;whiteSpace=wrap;html=1;fontSize=16;" parent="5X6vWWqTuCtD_axQP573-10" vertex="1">
                    <mxGeometry y="430" width="220" height="40" as="geometry"/>
                </mxCell>
                <mxCell id="5X6vWWqTuCtD_axQP573-66" value="Components : string" style="text;strokeColor=none;fillColor=none;align=left;verticalAlign=middle;spacingLeft=4;spacingRight=4;overflow=hidden;points=[[0,0.5],[1,0.5]];portConstraint=eastwest;rotatable=0;whiteSpace=wrap;html=1;fontSize=16;" parent="5X6vWWqTuCtD_axQP573-10" vertex="1">
                    <mxGeometry y="470" width="220" height="40" as="geometry"/>
                </mxCell>
                <mxCell id="5X6vWWqTuCtD_axQP573-67" value="Region : string" style="text;strokeColor=none;fillColor=none;align=left;verticalAlign=middle;spacingLeft=4;spacingRight=4;overflow=hidden;points=[[0,0.5],[1,0.5]];portConstraint=eastwest;rotatable=0;whiteSpace=wrap;html=1;fontSize=16;" parent="5X6vWWqTuCtD_axQP573-10" vertex="1">
                    <mxGeometry y="510" width="220" height="40" as="geometry"/>
                </mxCell>
                <mxCell id="5X6vWWqTuCtD_axQP573-68" value="CipPex : string" style="text;strokeColor=none;fillColor=none;align=left;verticalAlign=middle;spacingLeft=4;spacingRight=4;overflow=hidden;points=[[0,0.5],[1,0.5]];portConstraint=eastwest;rotatable=0;whiteSpace=wrap;html=1;fontSize=16;" parent="5X6vWWqTuCtD_axQP573-10" vertex="1">
                    <mxGeometry y="550" width="220" height="40" as="geometry"/>
                </mxCell>
                <mxCell id="5X6vWWqTuCtD_axQP573-69" value="Currency : string" style="text;strokeColor=none;fillColor=none;align=left;verticalAlign=middle;spacingLeft=4;spacingRight=4;overflow=hidden;points=[[0,0.5],[1,0.5]];portConstraint=eastwest;rotatable=0;whiteSpace=wrap;html=1;fontSize=16;" parent="5X6vWWqTuCtD_axQP573-10" vertex="1">
                    <mxGeometry y="590" width="220" height="40" as="geometry"/>
                </mxCell>
                <mxCell id="5X6vWWqTuCtD_axQP573-70" value="Priority : enum" style="text;strokeColor=none;fillColor=none;align=left;verticalAlign=middle;spacingLeft=4;spacingRight=4;overflow=hidden;points=[[0,0.5],[1,0.5]];portConstraint=eastwest;rotatable=0;whiteSpace=wrap;html=1;fontSize=16;" parent="5X6vWWqTuCtD_axQP573-10" vertex="1">
                    <mxGeometry y="630" width="220" height="40" as="geometry"/>
                </mxCell>
                <mxCell id="V3F5qTrBF1ACq048u2DE-0" value="StatusImprovement : enum" style="text;strokeColor=none;fillColor=none;align=left;verticalAlign=middle;spacingLeft=4;spacingRight=4;overflow=hidden;points=[[0,0.5],[1,0.5]];portConstraint=eastwest;rotatable=0;whiteSpace=wrap;html=1;fontSize=16;" parent="5X6vWWqTuCtD_axQP573-10" vertex="1">
                    <mxGeometry y="670" width="220" height="40" as="geometry"/>
                </mxCell>
                <mxCell id="5X6vWWqTuCtD_axQP573-35" style="edgeStyle=none;curved=1;rounded=0;orthogonalLoop=1;jettySize=auto;html=1;entryX=1;entryY=0.5;entryDx=0;entryDy=0;fontSize=12;startSize=8;endSize=8;" parent="WIyWlLk6GJQsqaUBKTNV-1" source="5X6vWWqTuCtD_axQP573-14" target="5X6vWWqTuCtD_axQP573-19" edge="1">
                    <mxGeometry relative="1" as="geometry"/>
                </mxCell>
                <mxCell id="5X6vWWqTuCtD_axQP573-14" value="MajorBenefits" style="swimlane;fontStyle=0;childLayout=stackLayout;horizontal=1;startSize=30;horizontalStack=0;resizeParent=1;resizeParentMax=0;resizeLast=0;collapsible=1;marginBottom=0;whiteSpace=wrap;html=1;fontSize=16;" parent="WIyWlLk6GJQsqaUBKTNV-1" vertex="1">
                    <mxGeometry x="520" y="30" width="250" height="90" as="geometry"/>
                </mxCell>
                <mxCell id="5X6vWWqTuCtD_axQP573-17" value="MajorBenefitsId : string&amp;nbsp;" style="text;strokeColor=none;fillColor=none;align=left;verticalAlign=middle;spacingLeft=4;spacingRight=4;overflow=hidden;points=[[0,0.5],[1,0.5]];portConstraint=eastwest;rotatable=0;whiteSpace=wrap;html=1;fontSize=16;" parent="5X6vWWqTuCtD_axQP573-14" vertex="1">
                    <mxGeometry y="30" width="250" height="30" as="geometry"/>
                </mxCell>
                <mxCell id="5X6vWWqTuCtD_axQP573-32" value="Name: string" style="text;strokeColor=none;fillColor=none;align=left;verticalAlign=middle;spacingLeft=4;spacingRight=4;overflow=hidden;points=[[0,0.5],[1,0.5]];portConstraint=eastwest;rotatable=0;whiteSpace=wrap;html=1;fontSize=16;" parent="5X6vWWqTuCtD_axQP573-14" vertex="1">
                    <mxGeometry y="60" width="250" height="30" as="geometry"/>
                </mxCell>
                <mxCell id="5X6vWWqTuCtD_axQP573-36" style="edgeStyle=none;curved=1;rounded=0;orthogonalLoop=1;jettySize=auto;html=1;entryX=1;entryY=0.5;entryDx=0;entryDy=0;fontSize=12;startSize=8;endSize=8;" parent="WIyWlLk6GJQsqaUBKTNV-1" source="5X6vWWqTuCtD_axQP573-27" target="5X6vWWqTuCtD_axQP573-34" edge="1">
                    <mxGeometry relative="1" as="geometry"/>
                </mxCell>
                <mxCell id="5X6vWWqTuCtD_axQP573-27" value="SourceType" style="swimlane;fontStyle=0;childLayout=stackLayout;horizontal=1;startSize=30;horizontalStack=0;resizeParent=1;resizeParentMax=0;resizeLast=0;collapsible=1;marginBottom=0;whiteSpace=wrap;html=1;fontSize=16;" parent="WIyWlLk6GJQsqaUBKTNV-1" vertex="1">
                    <mxGeometry x="540" y="240" width="250" height="90" as="geometry"/>
                </mxCell>
                <mxCell id="5X6vWWqTuCtD_axQP573-28" value="SourceTypeId : string" style="text;strokeColor=none;fillColor=none;align=left;verticalAlign=middle;spacingLeft=4;spacingRight=4;overflow=hidden;points=[[0,0.5],[1,0.5]];portConstraint=eastwest;rotatable=0;whiteSpace=wrap;html=1;fontSize=16;" parent="5X6vWWqTuCtD_axQP573-27" vertex="1">
                    <mxGeometry y="30" width="250" height="30" as="geometry"/>
                </mxCell>
                <mxCell id="5X6vWWqTuCtD_axQP573-37" value="Name : string" style="text;strokeColor=none;fillColor=none;align=left;verticalAlign=middle;spacingLeft=4;spacingRight=4;overflow=hidden;points=[[0,0.5],[1,0.5]];portConstraint=eastwest;rotatable=0;whiteSpace=wrap;html=1;fontSize=16;" parent="5X6vWWqTuCtD_axQP573-27" vertex="1">
                    <mxGeometry y="60" width="250" height="30" as="geometry"/>
                </mxCell>
                <mxCell id="5X6vWWqTuCtD_axQP573-38" value="n" style="text;html=1;align=center;verticalAlign=middle;resizable=0;points=[];autosize=1;strokeColor=none;fillColor=none;fontSize=16;" parent="WIyWlLk6GJQsqaUBKTNV-1" vertex="1">
                    <mxGeometry x="330" y="200" width="30" height="30" as="geometry"/>
                </mxCell>
                <mxCell id="5X6vWWqTuCtD_axQP573-39" value="1" style="text;html=1;align=center;verticalAlign=middle;resizable=0;points=[];autosize=1;strokeColor=none;fillColor=none;fontSize=16;" parent="WIyWlLk6GJQsqaUBKTNV-1" vertex="1">
                    <mxGeometry x="490" y="90" width="30" height="30" as="geometry"/>
                </mxCell>
                <mxCell id="5X6vWWqTuCtD_axQP573-40" value="n" style="text;html=1;align=center;verticalAlign=middle;resizable=0;points=[];autosize=1;strokeColor=none;fillColor=none;fontSize=16;" parent="WIyWlLk6GJQsqaUBKTNV-1" vertex="1">
                    <mxGeometry x="320" y="360" width="30" height="30" as="geometry"/>
                </mxCell>
                <mxCell id="5X6vWWqTuCtD_axQP573-41" value="1" style="text;html=1;align=center;verticalAlign=middle;resizable=0;points=[];autosize=1;strokeColor=none;fillColor=none;fontSize=16;" parent="WIyWlLk6GJQsqaUBKTNV-1" vertex="1">
                    <mxGeometry x="500" y="275" width="30" height="30" as="geometry"/>
                </mxCell>
                <mxCell id="5X6vWWqTuCtD_axQP573-47" style="edgeStyle=none;curved=1;rounded=0;orthogonalLoop=1;jettySize=auto;html=1;entryX=1;entryY=0.5;entryDx=0;entryDy=0;fontSize=12;startSize=8;endSize=8;" parent="WIyWlLk6GJQsqaUBKTNV-1" source="5X6vWWqTuCtD_axQP573-43" target="5X6vWWqTuCtD_axQP573-42" edge="1">
                    <mxGeometry relative="1" as="geometry"/>
                </mxCell>
                <mxCell id="5X6vWWqTuCtD_axQP573-43" value="IdeaSource" style="swimlane;fontStyle=0;childLayout=stackLayout;horizontal=1;startSize=30;horizontalStack=0;resizeParent=1;resizeParentMax=0;resizeLast=0;collapsible=1;marginBottom=0;whiteSpace=wrap;html=1;fontSize=16;" parent="WIyWlLk6GJQsqaUBKTNV-1" vertex="1">
                    <mxGeometry x="540" y="390" width="250" height="120" as="geometry"/>
                </mxCell>
                <mxCell id="5X6vWWqTuCtD_axQP573-44" value="IdeaSourceId : string" style="text;strokeColor=none;fillColor=none;align=left;verticalAlign=middle;spacingLeft=4;spacingRight=4;overflow=hidden;points=[[0,0.5],[1,0.5]];portConstraint=eastwest;rotatable=0;whiteSpace=wrap;html=1;fontSize=16;" parent="5X6vWWqTuCtD_axQP573-43" vertex="1">
                    <mxGeometry y="30" width="250" height="30" as="geometry"/>
                </mxCell>
                <mxCell id="5X6vWWqTuCtD_axQP573-45" value="Name : string" style="text;strokeColor=none;fillColor=none;align=left;verticalAlign=middle;spacingLeft=4;spacingRight=4;overflow=hidden;points=[[0,0.5],[1,0.5]];portConstraint=eastwest;rotatable=0;whiteSpace=wrap;html=1;fontSize=16;" parent="5X6vWWqTuCtD_axQP573-43" vertex="1">
                    <mxGeometry y="60" width="250" height="30" as="geometry"/>
                </mxCell>
                <mxCell id="5X6vWWqTuCtD_axQP573-46" value="InternallySolvable : bool" style="text;strokeColor=none;fillColor=none;align=left;verticalAlign=middle;spacingLeft=4;spacingRight=4;overflow=hidden;points=[[0,0.5],[1,0.5]];portConstraint=eastwest;rotatable=0;whiteSpace=wrap;html=1;fontSize=16;" parent="5X6vWWqTuCtD_axQP573-43" vertex="1">
                    <mxGeometry y="90" width="250" height="30" as="geometry"/>
                </mxCell>
                <mxCell id="5X6vWWqTuCtD_axQP573-49" value="1" style="text;html=1;align=center;verticalAlign=middle;resizable=0;points=[];autosize=1;strokeColor=none;fillColor=none;fontSize=16;" parent="WIyWlLk6GJQsqaUBKTNV-1" vertex="1">
                    <mxGeometry x="510" y="410" width="30" height="30" as="geometry"/>
                </mxCell>
                <mxCell id="5X6vWWqTuCtD_axQP573-50" value="n" style="text;html=1;align=center;verticalAlign=middle;resizable=0;points=[];autosize=1;strokeColor=none;fillColor=none;fontSize=16;" parent="WIyWlLk6GJQsqaUBKTNV-1" vertex="1">
                    <mxGeometry x="320" y="420" width="30" height="30" as="geometry"/>
                </mxCell>
                <mxCell id="5X6vWWqTuCtD_axQP573-54" style="edgeStyle=none;curved=1;rounded=0;orthogonalLoop=1;jettySize=auto;html=1;entryX=0;entryY=0.5;entryDx=0;entryDy=0;fontSize=12;startSize=8;endSize=8;exitX=1;exitY=0.5;exitDx=0;exitDy=0;" parent="WIyWlLk6GJQsqaUBKTNV-1" source="zkfFHV4jXpPFQw0GAbJ--1" target="5X6vWWqTuCtD_axQP573-53" edge="1">
                    <mxGeometry relative="1" as="geometry"/>
                </mxCell>
                <mxCell id="5X6vWWqTuCtD_axQP573-55" value="1" style="text;html=1;align=center;verticalAlign=middle;resizable=0;points=[];autosize=1;strokeColor=none;fillColor=none;fontSize=16;" parent="WIyWlLk6GJQsqaUBKTNV-1" vertex="1">
                    <mxGeometry x="-60" y="150" width="30" height="30" as="geometry"/>
                </mxCell>
                <mxCell id="5X6vWWqTuCtD_axQP573-56" value="n" style="text;html=1;align=center;verticalAlign=middle;resizable=0;points=[];autosize=1;strokeColor=none;fillColor=none;fontSize=16;" parent="WIyWlLk6GJQsqaUBKTNV-1" vertex="1">
                    <mxGeometry x="70" y="130" width="30" height="30" as="geometry"/>
                </mxCell>
                <mxCell id="5X6vWWqTuCtD_axQP573-65" style="edgeStyle=none;curved=1;rounded=0;orthogonalLoop=1;jettySize=auto;html=1;entryX=1;entryY=0.5;entryDx=0;entryDy=0;fontSize=12;startSize=8;endSize=8;" parent="WIyWlLk6GJQsqaUBKTNV-1" source="5X6vWWqTuCtD_axQP573-59" edge="1">
                    <mxGeometry relative="1" as="geometry">
                        <mxPoint x="320" y="540" as="targetPoint"/>
                    </mxGeometry>
                </mxCell>
                <mxCell id="5X6vWWqTuCtD_axQP573-59" value="Sprint" style="swimlane;fontStyle=0;childLayout=stackLayout;horizontal=1;startSize=30;horizontalStack=0;resizeParent=1;resizeParentMax=0;resizeLast=0;collapsible=1;marginBottom=0;whiteSpace=wrap;html=1;fontSize=16;" parent="WIyWlLk6GJQsqaUBKTNV-1" vertex="1">
                    <mxGeometry x="530" y="560" width="250" height="210" as="geometry"/>
                </mxCell>
                <mxCell id="5X6vWWqTuCtD_axQP573-60" value="SprintId : string&amp;nbsp;&amp;nbsp;" style="text;strokeColor=none;fillColor=none;align=left;verticalAlign=middle;spacingLeft=4;spacingRight=4;overflow=hidden;points=[[0,0.5],[1,0.5]];portConstraint=eastwest;rotatable=0;whiteSpace=wrap;html=1;fontSize=16;" parent="5X6vWWqTuCtD_axQP573-59" vertex="1">
                    <mxGeometry y="30" width="250" height="30" as="geometry"/>
                </mxCell>
                <mxCell id="5X6vWWqTuCtD_axQP573-63" value="Code: string UQ" style="text;strokeColor=none;fillColor=none;align=left;verticalAlign=middle;spacingLeft=4;spacingRight=4;overflow=hidden;points=[[0,0.5],[1,0.5]];portConstraint=eastwest;rotatable=0;whiteSpace=wrap;html=1;fontSize=16;" parent="5X6vWWqTuCtD_axQP573-59" vertex="1">
                    <mxGeometry y="60" width="250" height="30" as="geometry"/>
                </mxCell>
                <mxCell id="5X6vWWqTuCtD_axQP573-64" value="InitialDate : DateTime" style="text;strokeColor=none;fillColor=none;align=left;verticalAlign=middle;spacingLeft=4;spacingRight=4;overflow=hidden;points=[[0,0.5],[1,0.5]];portConstraint=eastwest;rotatable=0;whiteSpace=wrap;html=1;fontSize=16;" parent="5X6vWWqTuCtD_axQP573-59" vertex="1">
                    <mxGeometry y="90" width="250" height="30" as="geometry"/>
                </mxCell>
                <mxCell id="5X6vWWqTuCtD_axQP573-61" value="InitialDate : DateTime" style="text;strokeColor=none;fillColor=none;align=left;verticalAlign=middle;spacingLeft=4;spacingRight=4;overflow=hidden;points=[[0,0.5],[1,0.5]];portConstraint=eastwest;rotatable=0;whiteSpace=wrap;html=1;fontSize=16;" parent="5X6vWWqTuCtD_axQP573-59" vertex="1">
                    <mxGeometry y="120" width="250" height="30" as="geometry"/>
                </mxCell>
                <mxCell id="5X6vWWqTuCtD_axQP573-73" value="FinalDate : DateTime" style="text;strokeColor=none;fillColor=none;align=left;verticalAlign=middle;spacingLeft=4;spacingRight=4;overflow=hidden;points=[[0,0.5],[1,0.5]];portConstraint=eastwest;rotatable=0;whiteSpace=wrap;html=1;fontSize=16;" parent="5X6vWWqTuCtD_axQP573-59" vertex="1">
                    <mxGeometry y="150" width="250" height="30" as="geometry"/>
                </mxCell>
                <mxCell id="5X6vWWqTuCtD_axQP573-62" value="ImprovementId : string" style="text;strokeColor=none;fillColor=none;align=left;verticalAlign=middle;spacingLeft=4;spacingRight=4;overflow=hidden;points=[[0,0.5],[1,0.5]];portConstraint=eastwest;rotatable=0;whiteSpace=wrap;html=1;fontSize=16;" parent="5X6vWWqTuCtD_axQP573-59" vertex="1">
                    <mxGeometry y="180" width="250" height="30" as="geometry"/>
                </mxCell>
                <mxCell id="5X6vWWqTuCtD_axQP573-71" value="n" style="text;html=1;align=center;verticalAlign=middle;resizable=0;points=[];autosize=1;strokeColor=none;fillColor=none;fontSize=16;" parent="WIyWlLk6GJQsqaUBKTNV-1" vertex="1">
                    <mxGeometry x="490" y="570" width="30" height="30" as="geometry"/>
                </mxCell>
                <mxCell id="5X6vWWqTuCtD_axQP573-72" value="1" style="text;html=1;align=center;verticalAlign=middle;resizable=0;points=[];autosize=1;strokeColor=none;fillColor=none;fontSize=16;" parent="WIyWlLk6GJQsqaUBKTNV-1" vertex="1">
                    <mxGeometry x="320" y="510" width="30" height="30" as="geometry"/>
                </mxCell>
                <mxCell id="V3F5qTrBF1ACq048u2DE-2" value="StatusImprovement" style="swimlane;fontStyle=0;childLayout=stackLayout;horizontal=1;startSize=30;horizontalStack=0;resizeParent=1;resizeParentMax=0;resizeLast=0;collapsible=1;marginBottom=0;whiteSpace=wrap;html=1;fontSize=16;" parent="WIyWlLk6GJQsqaUBKTNV-1" vertex="1">
                    <mxGeometry x="450" y="820" width="250" height="90" as="geometry"/>
                </mxCell>
                <mxCell id="V3F5qTrBF1ACq048u2DE-3" value="Approved" style="text;strokeColor=none;fillColor=none;align=left;verticalAlign=middle;spacingLeft=4;spacingRight=4;overflow=hidden;points=[[0,0.5],[1,0.5]];portConstraint=eastwest;rotatable=0;whiteSpace=wrap;html=1;fontSize=16;" parent="V3F5qTrBF1ACq048u2DE-2" vertex="1">
                    <mxGeometry y="30" width="250" height="30" as="geometry"/>
                </mxCell>
                <mxCell id="V3F5qTrBF1ACq048u2DE-9" value="Disapproved" style="text;strokeColor=none;fillColor=none;align=left;verticalAlign=middle;spacingLeft=4;spacingRight=4;overflow=hidden;points=[[0,0.5],[1,0.5]];portConstraint=eastwest;rotatable=0;whiteSpace=wrap;html=1;fontSize=16;" parent="V3F5qTrBF1ACq048u2DE-2" vertex="1">
                    <mxGeometry y="60" width="250" height="30" as="geometry"/>
                </mxCell>
                <mxCell id="V3F5qTrBF1ACq048u2DE-1" style="edgeStyle=none;curved=1;rounded=0;orthogonalLoop=1;jettySize=auto;html=1;exitX=1;exitY=0.5;exitDx=0;exitDy=0;fontSize=12;startSize=8;endSize=8;entryX=0.473;entryY=-0.017;entryDx=0;entryDy=0;entryPerimeter=0;" parent="WIyWlLk6GJQsqaUBKTNV-1" source="V3F5qTrBF1ACq048u2DE-0" target="V3F5qTrBF1ACq048u2DE-2" edge="1">
                    <mxGeometry relative="1" as="geometry">
                        <mxPoint x="380" y="820" as="targetPoint"/>
                    </mxGeometry>
                </mxCell>
            </root>
        </mxGraphModel>
    </diagram>
    <diagram id="k76fcA9X5oMHo38e-QYq" name="Página-2">
        <mxGraphModel dx="4746" dy="1312" grid="0" gridSize="10" guides="1" tooltips="1" connect="1" arrows="1" fold="1" page="0" pageScale="1" pageWidth="827" pageHeight="1169" math="0" shadow="0">
            <root>
                <mxCell id="0"/>
                <mxCell id="1" parent="0"/>
                <mxCell id="-KwbOjn1HMiHlHddKkjQ-1" value="Department" style="swimlane;fontStyle=2;align=center;verticalAlign=top;childLayout=stackLayout;horizontal=1;startSize=26;horizontalStack=0;resizeParent=1;resizeLast=0;collapsible=1;marginBottom=0;rounded=0;shadow=0;strokeWidth=1;" parent="1" vertex="1">
                    <mxGeometry x="-670" y="65" width="160" height="90" as="geometry">
                        <mxRectangle x="230" y="140" width="160" height="26" as="alternateBounds"/>
                    </mxGeometry>
                </mxCell>
                <mxCell id="-KwbOjn1HMiHlHddKkjQ-2" value="DepartmentId : string&#10;" style="text;align=left;verticalAlign=top;spacingLeft=4;spacingRight=4;overflow=hidden;rotatable=0;points=[[0,0.5],[1,0.5]];portConstraint=eastwest;" parent="-KwbOjn1HMiHlHddKkjQ-1" vertex="1">
                    <mxGeometry y="26" width="160" height="26" as="geometry"/>
                </mxCell>
                <mxCell id="-KwbOjn1HMiHlHddKkjQ-3" value="Name : string" style="text;align=left;verticalAlign=top;spacingLeft=4;spacingRight=4;overflow=hidden;rotatable=0;points=[[0,0.5],[1,0.5]];portConstraint=eastwest;rounded=0;shadow=0;html=0;" parent="-KwbOjn1HMiHlHddKkjQ-1" vertex="1">
                    <mxGeometry y="52" width="160" height="26" as="geometry"/>
                </mxCell>
                <mxCell id="-KwbOjn1HMiHlHddKkjQ-13" value="Improvement" style="swimlane;fontStyle=0;childLayout=stackLayout;horizontal=1;startSize=30;horizontalStack=0;resizeParent=1;resizeParentMax=0;resizeLast=0;collapsible=1;marginBottom=0;whiteSpace=wrap;html=1;fontSize=16;" parent="1" vertex="1">
                    <mxGeometry x="-340" y="-45" width="220" height="750" as="geometry"/>
                </mxCell>
                <mxCell id="-KwbOjn1HMiHlHddKkjQ-14" value="ImprovementId : string" style="text;strokeColor=none;fillColor=none;align=left;verticalAlign=middle;spacingLeft=4;spacingRight=4;overflow=hidden;points=[[0,0.5],[1,0.5]];portConstraint=eastwest;rotatable=0;whiteSpace=wrap;html=1;fontSize=16;" parent="-KwbOjn1HMiHlHddKkjQ-13" vertex="1">
                    <mxGeometry y="30" width="220" height="30" as="geometry"/>
                </mxCell>
                <mxCell id="-KwbOjn1HMiHlHddKkjQ-15" value="Assignee&amp;nbsp;: string" style="text;strokeColor=none;fillColor=none;align=left;verticalAlign=middle;spacingLeft=4;spacingRight=4;overflow=hidden;points=[[0,0.5],[1,0.5]];portConstraint=eastwest;rotatable=0;whiteSpace=wrap;html=1;fontSize=16;" parent="-KwbOjn1HMiHlHddKkjQ-13" vertex="1">
                    <mxGeometry y="60" width="220" height="30" as="geometry"/>
                </mxCell>
                <mxCell id="-KwbOjn1HMiHlHddKkjQ-16" value="DepartmentId : string" style="text;strokeColor=none;fillColor=none;align=left;verticalAlign=middle;spacingLeft=4;spacingRight=4;overflow=hidden;points=[[0,0.5],[1,0.5]];portConstraint=eastwest;rotatable=0;whiteSpace=wrap;html=1;fontSize=16;" parent="-KwbOjn1HMiHlHddKkjQ-13" vertex="1">
                    <mxGeometry y="90" width="220" height="30" as="geometry"/>
                </mxCell>
                <mxCell id="-KwbOjn1HMiHlHddKkjQ-17" value="Summary : string" style="text;strokeColor=none;fillColor=none;align=left;verticalAlign=middle;spacingLeft=4;spacingRight=4;overflow=hidden;points=[[0,0.5],[1,0.5]];portConstraint=eastwest;rotatable=0;whiteSpace=wrap;html=1;fontSize=16;" parent="-KwbOjn1HMiHlHddKkjQ-13" vertex="1">
                    <mxGeometry y="120" width="220" height="30" as="geometry"/>
                </mxCell>
                <mxCell id="-KwbOjn1HMiHlHddKkjQ-18" value="Description : string" style="text;strokeColor=none;fillColor=none;align=left;verticalAlign=middle;spacingLeft=4;spacingRight=4;overflow=hidden;points=[[0,0.5],[1,0.5]];portConstraint=eastwest;rotatable=0;whiteSpace=wrap;html=1;fontSize=16;" parent="-KwbOjn1HMiHlHddKkjQ-13" vertex="1">
                    <mxGeometry y="150" width="220" height="40" as="geometry"/>
                </mxCell>
                <mxCell id="-KwbOjn1HMiHlHddKkjQ-19" value="MajorBenefitsId : string&amp;nbsp;" style="text;strokeColor=none;fillColor=none;align=left;verticalAlign=middle;spacingLeft=4;spacingRight=4;overflow=hidden;points=[[0,0.5],[1,0.5]];portConstraint=eastwest;rotatable=0;whiteSpace=wrap;html=1;fontSize=16;" parent="-KwbOjn1HMiHlHddKkjQ-13" vertex="1">
                    <mxGeometry y="190" width="220" height="40" as="geometry"/>
                </mxCell>
                <mxCell id="-KwbOjn1HMiHlHddKkjQ-20" value="DueDate : DateTime" style="text;strokeColor=none;fillColor=none;align=left;verticalAlign=middle;spacingLeft=4;spacingRight=4;overflow=hidden;points=[[0,0.5],[1,0.5]];portConstraint=eastwest;rotatable=0;whiteSpace=wrap;html=1;fontSize=16;" parent="-KwbOjn1HMiHlHddKkjQ-13" vertex="1">
                    <mxGeometry y="230" width="220" height="40" as="geometry"/>
                </mxCell>
                <mxCell id="-KwbOjn1HMiHlHddKkjQ-21" value="AffectEntities : string" style="text;strokeColor=none;fillColor=none;align=left;verticalAlign=middle;spacingLeft=4;spacingRight=4;overflow=hidden;points=[[0,0.5],[1,0.5]];portConstraint=eastwest;rotatable=0;whiteSpace=wrap;html=1;fontSize=16;" parent="-KwbOjn1HMiHlHddKkjQ-13" vertex="1">
                    <mxGeometry y="270" width="220" height="40" as="geometry"/>
                </mxCell>
                <mxCell id="-KwbOjn1HMiHlHddKkjQ-22" value="EstimatedHours : TimeStamp" style="text;strokeColor=none;fillColor=none;align=left;verticalAlign=middle;spacingLeft=4;spacingRight=4;overflow=hidden;points=[[0,0.5],[1,0.5]];portConstraint=eastwest;rotatable=0;whiteSpace=wrap;html=1;fontSize=16;" parent="-KwbOjn1HMiHlHddKkjQ-13" vertex="1">
                    <mxGeometry y="310" width="220" height="40" as="geometry"/>
                </mxCell>
                <mxCell id="-KwbOjn1HMiHlHddKkjQ-23" value="SourceTypeId : string" style="text;strokeColor=none;fillColor=none;align=left;verticalAlign=middle;spacingLeft=4;spacingRight=4;overflow=hidden;points=[[0,0.5],[1,0.5]];portConstraint=eastwest;rotatable=0;whiteSpace=wrap;html=1;fontSize=16;" parent="-KwbOjn1HMiHlHddKkjQ-13" vertex="1">
                    <mxGeometry y="350" width="220" height="40" as="geometry"/>
                </mxCell>
                <mxCell id="-KwbOjn1HMiHlHddKkjQ-24" value="IdeaSourceId : string" style="text;strokeColor=none;fillColor=none;align=left;verticalAlign=middle;spacingLeft=4;spacingRight=4;overflow=hidden;points=[[0,0.5],[1,0.5]];portConstraint=eastwest;rotatable=0;whiteSpace=wrap;html=1;fontSize=16;" parent="-KwbOjn1HMiHlHddKkjQ-13" vertex="1">
                    <mxGeometry y="390" width="220" height="40" as="geometry"/>
                </mxCell>
                <mxCell id="-KwbOjn1HMiHlHddKkjQ-25" value="IdeaSourceId : string" style="text;strokeColor=none;fillColor=none;align=left;verticalAlign=middle;spacingLeft=4;spacingRight=4;overflow=hidden;points=[[0,0.5],[1,0.5]];portConstraint=eastwest;rotatable=0;whiteSpace=wrap;html=1;fontSize=16;" parent="-KwbOjn1HMiHlHddKkjQ-13" vertex="1">
                    <mxGeometry y="430" width="220" height="40" as="geometry"/>
                </mxCell>
                <mxCell id="i9owRUiu1ZoD4XfDXR24-2" value="Sprints : List" style="text;strokeColor=none;fillColor=none;align=left;verticalAlign=middle;spacingLeft=4;spacingRight=4;overflow=hidden;points=[[0,0.5],[1,0.5]];portConstraint=eastwest;rotatable=0;whiteSpace=wrap;html=1;fontSize=16;" parent="-KwbOjn1HMiHlHddKkjQ-13" vertex="1">
                    <mxGeometry y="470" width="220" height="40" as="geometry"/>
                </mxCell>
                <mxCell id="-KwbOjn1HMiHlHddKkjQ-26" value="Components : string" style="text;strokeColor=none;fillColor=none;align=left;verticalAlign=middle;spacingLeft=4;spacingRight=4;overflow=hidden;points=[[0,0.5],[1,0.5]];portConstraint=eastwest;rotatable=0;whiteSpace=wrap;html=1;fontSize=16;" parent="-KwbOjn1HMiHlHddKkjQ-13" vertex="1">
                    <mxGeometry y="510" width="220" height="40" as="geometry"/>
                </mxCell>
                <mxCell id="-KwbOjn1HMiHlHddKkjQ-27" value="Region : string" style="text;strokeColor=none;fillColor=none;align=left;verticalAlign=middle;spacingLeft=4;spacingRight=4;overflow=hidden;points=[[0,0.5],[1,0.5]];portConstraint=eastwest;rotatable=0;whiteSpace=wrap;html=1;fontSize=16;" parent="-KwbOjn1HMiHlHddKkjQ-13" vertex="1">
                    <mxGeometry y="550" width="220" height="40" as="geometry"/>
                </mxCell>
                <mxCell id="-KwbOjn1HMiHlHddKkjQ-28" value="CipPex : string" style="text;strokeColor=none;fillColor=none;align=left;verticalAlign=middle;spacingLeft=4;spacingRight=4;overflow=hidden;points=[[0,0.5],[1,0.5]];portConstraint=eastwest;rotatable=0;whiteSpace=wrap;html=1;fontSize=16;" parent="-KwbOjn1HMiHlHddKkjQ-13" vertex="1">
                    <mxGeometry y="590" width="220" height="40" as="geometry"/>
                </mxCell>
                <mxCell id="-KwbOjn1HMiHlHddKkjQ-29" value="Currency : string" style="text;strokeColor=none;fillColor=none;align=left;verticalAlign=middle;spacingLeft=4;spacingRight=4;overflow=hidden;points=[[0,0.5],[1,0.5]];portConstraint=eastwest;rotatable=0;whiteSpace=wrap;html=1;fontSize=16;" parent="-KwbOjn1HMiHlHddKkjQ-13" vertex="1">
                    <mxGeometry y="630" width="220" height="40" as="geometry"/>
                </mxCell>
                <mxCell id="-KwbOjn1HMiHlHddKkjQ-30" value="Priority : enum" style="text;strokeColor=none;fillColor=none;align=left;verticalAlign=middle;spacingLeft=4;spacingRight=4;overflow=hidden;points=[[0,0.5],[1,0.5]];portConstraint=eastwest;rotatable=0;whiteSpace=wrap;html=1;fontSize=16;" parent="-KwbOjn1HMiHlHddKkjQ-13" vertex="1">
                    <mxGeometry y="670" width="220" height="40" as="geometry"/>
                </mxCell>
                <mxCell id="-KwbOjn1HMiHlHddKkjQ-31" value="StatusImprovement : enum" style="text;strokeColor=none;fillColor=none;align=left;verticalAlign=middle;spacingLeft=4;spacingRight=4;overflow=hidden;points=[[0,0.5],[1,0.5]];portConstraint=eastwest;rotatable=0;whiteSpace=wrap;html=1;fontSize=16;" parent="-KwbOjn1HMiHlHddKkjQ-13" vertex="1">
                    <mxGeometry y="710" width="220" height="40" as="geometry"/>
                </mxCell>
                <mxCell id="-KwbOjn1HMiHlHddKkjQ-32" style="edgeStyle=none;curved=1;rounded=0;orthogonalLoop=1;jettySize=auto;html=1;entryX=1;entryY=0.5;entryDx=0;entryDy=0;fontSize=12;startSize=8;endSize=8;endArrow=ERmany;endFill=0;" parent="1" source="-KwbOjn1HMiHlHddKkjQ-33" target="-KwbOjn1HMiHlHddKkjQ-19" edge="1">
                    <mxGeometry relative="1" as="geometry"/>
                </mxCell>
                <mxCell id="-KwbOjn1HMiHlHddKkjQ-33" value="MajorBenefits" style="swimlane;fontStyle=0;childLayout=stackLayout;horizontal=1;startSize=30;horizontalStack=0;resizeParent=1;resizeParentMax=0;resizeLast=0;collapsible=1;marginBottom=0;whiteSpace=wrap;html=1;fontSize=16;" parent="1" vertex="1">
                    <mxGeometry x="80" y="-65" width="250" height="90" as="geometry"/>
                </mxCell>
                <mxCell id="-KwbOjn1HMiHlHddKkjQ-34" value="MajorBenefitsId : string&amp;nbsp;" style="text;strokeColor=none;fillColor=none;align=left;verticalAlign=middle;spacingLeft=4;spacingRight=4;overflow=hidden;points=[[0,0.5],[1,0.5]];portConstraint=eastwest;rotatable=0;whiteSpace=wrap;html=1;fontSize=16;" parent="-KwbOjn1HMiHlHddKkjQ-33" vertex="1">
                    <mxGeometry y="30" width="250" height="30" as="geometry"/>
                </mxCell>
                <mxCell id="-KwbOjn1HMiHlHddKkjQ-35" value="Name: string" style="text;strokeColor=none;fillColor=none;align=left;verticalAlign=middle;spacingLeft=4;spacingRight=4;overflow=hidden;points=[[0,0.5],[1,0.5]];portConstraint=eastwest;rotatable=0;whiteSpace=wrap;html=1;fontSize=16;" parent="-KwbOjn1HMiHlHddKkjQ-33" vertex="1">
                    <mxGeometry y="60" width="250" height="30" as="geometry"/>
                </mxCell>
                <mxCell id="-KwbOjn1HMiHlHddKkjQ-36" style="edgeStyle=none;curved=1;rounded=0;orthogonalLoop=1;jettySize=auto;html=1;entryX=1;entryY=0.5;entryDx=0;entryDy=0;fontSize=12;startSize=8;endSize=8;endArrow=ERmany;endFill=0;" parent="1" source="-KwbOjn1HMiHlHddKkjQ-37" target="-KwbOjn1HMiHlHddKkjQ-23" edge="1">
                    <mxGeometry relative="1" as="geometry"/>
                </mxCell>
                <mxCell id="-KwbOjn1HMiHlHddKkjQ-37" value="SourceType" style="swimlane;fontStyle=0;childLayout=stackLayout;horizontal=1;startSize=30;horizontalStack=0;resizeParent=1;resizeParentMax=0;resizeLast=0;collapsible=1;marginBottom=0;whiteSpace=wrap;html=1;fontSize=16;" parent="1" vertex="1">
                    <mxGeometry x="100" y="145" width="250" height="90" as="geometry"/>
                </mxCell>
                <mxCell id="-KwbOjn1HMiHlHddKkjQ-38" value="SourceTypeId : string" style="text;strokeColor=none;fillColor=none;align=left;verticalAlign=middle;spacingLeft=4;spacingRight=4;overflow=hidden;points=[[0,0.5],[1,0.5]];portConstraint=eastwest;rotatable=0;whiteSpace=wrap;html=1;fontSize=16;" parent="-KwbOjn1HMiHlHddKkjQ-37" vertex="1">
                    <mxGeometry y="30" width="250" height="30" as="geometry"/>
                </mxCell>
                <mxCell id="-KwbOjn1HMiHlHddKkjQ-39" value="Name : string" style="text;strokeColor=none;fillColor=none;align=left;verticalAlign=middle;spacingLeft=4;spacingRight=4;overflow=hidden;points=[[0,0.5],[1,0.5]];portConstraint=eastwest;rotatable=0;whiteSpace=wrap;html=1;fontSize=16;" parent="-KwbOjn1HMiHlHddKkjQ-37" vertex="1">
                    <mxGeometry y="60" width="250" height="30" as="geometry"/>
                </mxCell>
                <mxCell id="-KwbOjn1HMiHlHddKkjQ-40" value="n" style="text;html=1;align=center;verticalAlign=middle;resizable=0;points=[];autosize=1;strokeColor=none;fillColor=none;fontSize=16;" parent="1" vertex="1">
                    <mxGeometry x="-110" y="105" width="30" height="30" as="geometry"/>
                </mxCell>
                <mxCell id="-KwbOjn1HMiHlHddKkjQ-41" value="1" style="text;html=1;align=center;verticalAlign=middle;resizable=0;points=[];autosize=1;strokeColor=none;fillColor=none;fontSize=16;" parent="1" vertex="1">
                    <mxGeometry x="50" y="-5" width="30" height="30" as="geometry"/>
                </mxCell>
                <mxCell id="-KwbOjn1HMiHlHddKkjQ-42" value="n" style="text;html=1;align=center;verticalAlign=middle;resizable=0;points=[];autosize=1;strokeColor=none;fillColor=none;fontSize=16;" parent="1" vertex="1">
                    <mxGeometry x="-120" y="265" width="30" height="30" as="geometry"/>
                </mxCell>
                <mxCell id="-KwbOjn1HMiHlHddKkjQ-43" value="1" style="text;html=1;align=center;verticalAlign=middle;resizable=0;points=[];autosize=1;strokeColor=none;fillColor=none;fontSize=16;" parent="1" vertex="1">
                    <mxGeometry x="60" y="180" width="30" height="30" as="geometry"/>
                </mxCell>
                <mxCell id="-KwbOjn1HMiHlHddKkjQ-44" style="edgeStyle=none;curved=1;rounded=0;orthogonalLoop=1;jettySize=auto;html=1;entryX=1;entryY=0.5;entryDx=0;entryDy=0;fontSize=12;startSize=8;endSize=8;endArrow=ERmany;endFill=0;" parent="1" source="-KwbOjn1HMiHlHddKkjQ-45" target="-KwbOjn1HMiHlHddKkjQ-24" edge="1">
                    <mxGeometry relative="1" as="geometry"/>
                </mxCell>
                <mxCell id="-KwbOjn1HMiHlHddKkjQ-45" value="IdeaSource" style="swimlane;fontStyle=0;childLayout=stackLayout;horizontal=1;startSize=30;horizontalStack=0;resizeParent=1;resizeParentMax=0;resizeLast=0;collapsible=1;marginBottom=0;whiteSpace=wrap;html=1;fontSize=16;" parent="1" vertex="1">
                    <mxGeometry x="100" y="295" width="250" height="120" as="geometry"/>
                </mxCell>
                <mxCell id="-KwbOjn1HMiHlHddKkjQ-46" value="IdeaSourceId : string" style="text;strokeColor=none;fillColor=none;align=left;verticalAlign=middle;spacingLeft=4;spacingRight=4;overflow=hidden;points=[[0,0.5],[1,0.5]];portConstraint=eastwest;rotatable=0;whiteSpace=wrap;html=1;fontSize=16;" parent="-KwbOjn1HMiHlHddKkjQ-45" vertex="1">
                    <mxGeometry y="30" width="250" height="30" as="geometry"/>
                </mxCell>
                <mxCell id="-KwbOjn1HMiHlHddKkjQ-47" value="Name : string" style="text;strokeColor=none;fillColor=none;align=left;verticalAlign=middle;spacingLeft=4;spacingRight=4;overflow=hidden;points=[[0,0.5],[1,0.5]];portConstraint=eastwest;rotatable=0;whiteSpace=wrap;html=1;fontSize=16;" parent="-KwbOjn1HMiHlHddKkjQ-45" vertex="1">
                    <mxGeometry y="60" width="250" height="30" as="geometry"/>
                </mxCell>
                <mxCell id="-KwbOjn1HMiHlHddKkjQ-48" value="InternallySolvable : bool" style="text;strokeColor=none;fillColor=none;align=left;verticalAlign=middle;spacingLeft=4;spacingRight=4;overflow=hidden;points=[[0,0.5],[1,0.5]];portConstraint=eastwest;rotatable=0;whiteSpace=wrap;html=1;fontSize=16;" parent="-KwbOjn1HMiHlHddKkjQ-45" vertex="1">
                    <mxGeometry y="90" width="250" height="30" as="geometry"/>
                </mxCell>
                <mxCell id="-KwbOjn1HMiHlHddKkjQ-49" value="1" style="text;html=1;align=center;verticalAlign=middle;resizable=0;points=[];autosize=1;strokeColor=none;fillColor=none;fontSize=16;" parent="1" vertex="1">
                    <mxGeometry x="70" y="315" width="30" height="30" as="geometry"/>
                </mxCell>
                <mxCell id="-KwbOjn1HMiHlHddKkjQ-50" value="n" style="text;html=1;align=center;verticalAlign=middle;resizable=0;points=[];autosize=1;strokeColor=none;fillColor=none;fontSize=16;" parent="1" vertex="1">
                    <mxGeometry x="-120" y="325" width="30" height="30" as="geometry"/>
                </mxCell>
                <mxCell id="-KwbOjn1HMiHlHddKkjQ-51" style="edgeStyle=none;curved=1;rounded=0;orthogonalLoop=1;jettySize=auto;html=1;entryX=0;entryY=0.5;entryDx=0;entryDy=0;fontSize=12;startSize=8;endSize=8;exitX=1;exitY=0.5;exitDx=0;exitDy=0;endArrow=ERmany;endFill=0;" parent="1" source="-KwbOjn1HMiHlHddKkjQ-2" target="-KwbOjn1HMiHlHddKkjQ-16" edge="1">
                    <mxGeometry relative="1" as="geometry"/>
                </mxCell>
                <mxCell id="-KwbOjn1HMiHlHddKkjQ-52" value="1" style="text;html=1;align=center;verticalAlign=middle;resizable=0;points=[];autosize=1;strokeColor=none;fillColor=none;fontSize=16;" parent="1" vertex="1">
                    <mxGeometry x="-500" y="55" width="30" height="30" as="geometry"/>
                </mxCell>
                <mxCell id="-KwbOjn1HMiHlHddKkjQ-53" value="n" style="text;html=1;align=center;verticalAlign=middle;resizable=0;points=[];autosize=1;strokeColor=none;fillColor=none;fontSize=16;" parent="1" vertex="1">
                    <mxGeometry x="-370" y="35" width="30" height="30" as="geometry"/>
                </mxCell>
                <mxCell id="-KwbOjn1HMiHlHddKkjQ-55" value="Sprint" style="swimlane;fontStyle=0;childLayout=stackLayout;horizontal=1;startSize=30;horizontalStack=0;resizeParent=1;resizeParentMax=0;resizeLast=0;collapsible=1;marginBottom=0;whiteSpace=wrap;html=1;fontSize=16;" parent="1" vertex="1">
                    <mxGeometry x="90" y="465" width="250" height="210" as="geometry"/>
                </mxCell>
                <mxCell id="-KwbOjn1HMiHlHddKkjQ-56" value="SprintId : string&amp;nbsp;&amp;nbsp;" style="text;strokeColor=none;fillColor=none;align=left;verticalAlign=middle;spacingLeft=4;spacingRight=4;overflow=hidden;points=[[0,0.5],[1,0.5]];portConstraint=eastwest;rotatable=0;whiteSpace=wrap;html=1;fontSize=16;" parent="-KwbOjn1HMiHlHddKkjQ-55" vertex="1">
                    <mxGeometry y="30" width="250" height="30" as="geometry"/>
                </mxCell>
                <mxCell id="-KwbOjn1HMiHlHddKkjQ-57" value="Code: string UQ" style="text;strokeColor=none;fillColor=none;align=left;verticalAlign=middle;spacingLeft=4;spacingRight=4;overflow=hidden;points=[[0,0.5],[1,0.5]];portConstraint=eastwest;rotatable=0;whiteSpace=wrap;html=1;fontSize=16;" parent="-KwbOjn1HMiHlHddKkjQ-55" vertex="1">
                    <mxGeometry y="60" width="250" height="30" as="geometry"/>
                </mxCell>
                <mxCell id="-KwbOjn1HMiHlHddKkjQ-58" value="InitialDate : DateTime" style="text;strokeColor=none;fillColor=none;align=left;verticalAlign=middle;spacingLeft=4;spacingRight=4;overflow=hidden;points=[[0,0.5],[1,0.5]];portConstraint=eastwest;rotatable=0;whiteSpace=wrap;html=1;fontSize=16;" parent="-KwbOjn1HMiHlHddKkjQ-55" vertex="1">
                    <mxGeometry y="90" width="250" height="30" as="geometry"/>
                </mxCell>
                <mxCell id="-KwbOjn1HMiHlHddKkjQ-59" value="InitialDate : DateTime" style="text;strokeColor=none;fillColor=none;align=left;verticalAlign=middle;spacingLeft=4;spacingRight=4;overflow=hidden;points=[[0,0.5],[1,0.5]];portConstraint=eastwest;rotatable=0;whiteSpace=wrap;html=1;fontSize=16;" parent="-KwbOjn1HMiHlHddKkjQ-55" vertex="1">
                    <mxGeometry y="120" width="250" height="30" as="geometry"/>
                </mxCell>
                <mxCell id="-KwbOjn1HMiHlHddKkjQ-60" value="FinalDate : DateTime" style="text;strokeColor=none;fillColor=none;align=left;verticalAlign=middle;spacingLeft=4;spacingRight=4;overflow=hidden;points=[[0,0.5],[1,0.5]];portConstraint=eastwest;rotatable=0;whiteSpace=wrap;html=1;fontSize=16;" parent="-KwbOjn1HMiHlHddKkjQ-55" vertex="1">
                    <mxGeometry y="150" width="250" height="30" as="geometry"/>
                </mxCell>
                <mxCell id="-KwbOjn1HMiHlHddKkjQ-61" value="ImprovementId : string" style="text;strokeColor=none;fillColor=none;align=left;verticalAlign=middle;spacingLeft=4;spacingRight=4;overflow=hidden;points=[[0,0.5],[1,0.5]];portConstraint=eastwest;rotatable=0;whiteSpace=wrap;html=1;fontSize=16;" parent="-KwbOjn1HMiHlHddKkjQ-55" vertex="1">
                    <mxGeometry y="180" width="250" height="30" as="geometry"/>
                </mxCell>
                <mxCell id="-KwbOjn1HMiHlHddKkjQ-62" value="n" style="text;html=1;align=center;verticalAlign=middle;resizable=0;points=[];autosize=1;strokeColor=none;fillColor=none;fontSize=16;" parent="1" vertex="1">
                    <mxGeometry x="55" y="442" width="30" height="30" as="geometry"/>
                </mxCell>
                <mxCell id="-KwbOjn1HMiHlHddKkjQ-63" value="1" style="text;html=1;align=center;verticalAlign=middle;resizable=0;points=[];autosize=1;strokeColor=none;fillColor=none;fontSize=16;" parent="1" vertex="1">
                    <mxGeometry x="-120" y="415" width="30" height="30" as="geometry"/>
                </mxCell>
                <mxCell id="-KwbOjn1HMiHlHddKkjQ-64" value="StatusImprovement" style="swimlane;fontStyle=0;childLayout=stackLayout;horizontal=1;startSize=30;horizontalStack=0;resizeParent=1;resizeParentMax=0;resizeLast=0;collapsible=1;marginBottom=0;whiteSpace=wrap;html=1;fontSize=16;" parent="1" vertex="1">
                    <mxGeometry x="10" y="725" width="250" height="90" as="geometry"/>
                </mxCell>
                <mxCell id="-KwbOjn1HMiHlHddKkjQ-65" value="Approved" style="text;strokeColor=none;fillColor=none;align=left;verticalAlign=middle;spacingLeft=4;spacingRight=4;overflow=hidden;points=[[0,0.5],[1,0.5]];portConstraint=eastwest;rotatable=0;whiteSpace=wrap;html=1;fontSize=16;" parent="-KwbOjn1HMiHlHddKkjQ-64" vertex="1">
                    <mxGeometry y="30" width="250" height="30" as="geometry"/>
                </mxCell>
                <mxCell id="-KwbOjn1HMiHlHddKkjQ-66" value="Disapproved" style="text;strokeColor=none;fillColor=none;align=left;verticalAlign=middle;spacingLeft=4;spacingRight=4;overflow=hidden;points=[[0,0.5],[1,0.5]];portConstraint=eastwest;rotatable=0;whiteSpace=wrap;html=1;fontSize=16;" parent="-KwbOjn1HMiHlHddKkjQ-64" vertex="1">
                    <mxGeometry y="60" width="250" height="30" as="geometry"/>
                </mxCell>
                <mxCell id="-KwbOjn1HMiHlHddKkjQ-67" style="edgeStyle=none;curved=1;rounded=0;orthogonalLoop=1;jettySize=auto;html=1;exitX=1;exitY=0.5;exitDx=0;exitDy=0;fontSize=12;startSize=8;endSize=8;entryX=0.473;entryY=-0.017;entryDx=0;entryDy=0;entryPerimeter=0;endArrow=none;endFill=0;" parent="1" source="-KwbOjn1HMiHlHddKkjQ-31" target="-KwbOjn1HMiHlHddKkjQ-64" edge="1">
                    <mxGeometry relative="1" as="geometry">
                        <mxPoint x="-60" y="725" as="targetPoint"/>
                    </mxGeometry>
                </mxCell>
                <mxCell id="-KwbOjn1HMiHlHddKkjQ-70" value="" style="endArrow=none;html=1;rounded=0;fontSize=12;startSize=8;endSize=8;curved=1;entryX=1;entryY=0.5;entryDx=0;entryDy=0;exitX=0.001;exitY=0.056;exitDx=0;exitDy=0;exitPerimeter=0;startArrow=ERmany;startFill=0;" parent="1" source="-KwbOjn1HMiHlHddKkjQ-55" target="i9owRUiu1ZoD4XfDXR24-2" edge="1">
                    <mxGeometry width="50" height="50" relative="1" as="geometry">
                        <mxPoint x="-186" y="541" as="sourcePoint"/>
                        <mxPoint x="-136" y="491" as="targetPoint"/>
                    </mxGeometry>
                </mxCell>
                <mxCell id="-KwbOjn1HMiHlHddKkjQ-73" value="&lt;font style=&quot;font-size: 50px;&quot;&gt;IMPROVE CONTEXT&lt;/font&gt;" style="text;html=1;strokeColor=none;fillColor=none;align=center;verticalAlign=middle;whiteSpace=wrap;rounded=0;fontSize=16;" parent="1" vertex="1">
                    <mxGeometry x="-548" y="-217" width="940" height="82" as="geometry"/>
                </mxCell>
                <mxCell id="-KwbOjn1HMiHlHddKkjQ-76" value="&lt;font style=&quot;font-size: 50px;&quot;&gt;USER CONTEXT&lt;/font&gt;" style="text;html=1;strokeColor=none;fillColor=none;align=center;verticalAlign=middle;whiteSpace=wrap;rounded=0;fontSize=16;" parent="1" vertex="1">
                    <mxGeometry x="-3617" y="-190" width="940" height="82" as="geometry"/>
                </mxCell>
                <mxCell id="-KwbOjn1HMiHlHddKkjQ-77" value="User" style="swimlane;fontStyle=0;childLayout=stackLayout;horizontal=1;startSize=30;horizontalStack=0;resizeParent=1;resizeParentMax=0;resizeLast=0;collapsible=1;marginBottom=0;whiteSpace=wrap;html=1;fontSize=16;" parent="1" vertex="1">
                    <mxGeometry x="-3280" y="-68" width="140" height="180" as="geometry"/>
                </mxCell>
                <mxCell id="-KwbOjn1HMiHlHddKkjQ-78" value="UserId : string" style="text;strokeColor=none;fillColor=none;align=left;verticalAlign=middle;spacingLeft=4;spacingRight=4;overflow=hidden;points=[[0,0.5],[1,0.5]];portConstraint=eastwest;rotatable=0;whiteSpace=wrap;html=1;fontSize=16;" parent="-KwbOjn1HMiHlHddKkjQ-77" vertex="1">
                    <mxGeometry y="30" width="140" height="30" as="geometry"/>
                </mxCell>
                <mxCell id="-KwbOjn1HMiHlHddKkjQ-79" value="Name : string" style="text;strokeColor=none;fillColor=none;align=left;verticalAlign=middle;spacingLeft=4;spacingRight=4;overflow=hidden;points=[[0,0.5],[1,0.5]];portConstraint=eastwest;rotatable=0;whiteSpace=wrap;html=1;fontSize=16;" parent="-KwbOjn1HMiHlHddKkjQ-77" vertex="1">
                    <mxGeometry y="60" width="140" height="30" as="geometry"/>
                </mxCell>
                <mxCell id="-KwbOjn1HMiHlHddKkjQ-80" value="Email : string" style="text;strokeColor=none;fillColor=none;align=left;verticalAlign=middle;spacingLeft=4;spacingRight=4;overflow=hidden;points=[[0,0.5],[1,0.5]];portConstraint=eastwest;rotatable=0;whiteSpace=wrap;html=1;fontSize=16;" parent="-KwbOjn1HMiHlHddKkjQ-77" vertex="1">
                    <mxGeometry y="90" width="140" height="30" as="geometry"/>
                </mxCell>
                <mxCell id="-KwbOjn1HMiHlHddKkjQ-106" value="Password : string" style="text;strokeColor=none;fillColor=none;align=left;verticalAlign=middle;spacingLeft=4;spacingRight=4;overflow=hidden;points=[[0,0.5],[1,0.5]];portConstraint=eastwest;rotatable=0;whiteSpace=wrap;html=1;fontSize=16;" parent="-KwbOjn1HMiHlHddKkjQ-77" vertex="1">
                    <mxGeometry y="120" width="140" height="30" as="geometry"/>
                </mxCell>
                <mxCell id="-KwbOjn1HMiHlHddKkjQ-86" value="Role : enum" style="text;strokeColor=none;fillColor=none;align=left;verticalAlign=middle;spacingLeft=4;spacingRight=4;overflow=hidden;points=[[0,0.5],[1,0.5]];portConstraint=eastwest;rotatable=0;whiteSpace=wrap;html=1;fontSize=16;" parent="-KwbOjn1HMiHlHddKkjQ-77" vertex="1">
                    <mxGeometry y="150" width="140" height="30" as="geometry"/>
                </mxCell>
                <mxCell id="-KwbOjn1HMiHlHddKkjQ-96" value="&lt;span style=&quot;font-size: 50px;&quot;&gt;FINANCIAL CONTEXT&lt;/span&gt;" style="text;html=1;strokeColor=none;fillColor=none;align=center;verticalAlign=middle;whiteSpace=wrap;rounded=0;fontSize=16;" parent="1" vertex="1">
                    <mxGeometry x="-2100" y="-203" width="940" height="82" as="geometry"/>
                </mxCell>
                <mxCell id="QUcN6Z3jNNsvw5x7lziE-1" value="Roles" style="swimlane;fontStyle=0;childLayout=stackLayout;horizontal=1;startSize=30;horizontalStack=0;resizeParent=1;resizeParentMax=0;resizeLast=0;collapsible=1;marginBottom=0;whiteSpace=wrap;html=1;fontSize=16;" parent="1" vertex="1">
                    <mxGeometry x="-2995" y="-35" width="250" height="120" as="geometry"/>
                </mxCell>
                <mxCell id="QUcN6Z3jNNsvw5x7lziE-2" value="Requester" style="text;strokeColor=none;fillColor=none;align=left;verticalAlign=middle;spacingLeft=4;spacingRight=4;overflow=hidden;points=[[0,0.5],[1,0.5]];portConstraint=eastwest;rotatable=0;whiteSpace=wrap;html=1;fontSize=16;" parent="QUcN6Z3jNNsvw5x7lziE-1" vertex="1">
                    <mxGeometry y="30" width="250" height="30" as="geometry"/>
                </mxCell>
                <mxCell id="QUcN6Z3jNNsvw5x7lziE-3" value="Manager" style="text;strokeColor=none;fillColor=none;align=left;verticalAlign=middle;spacingLeft=4;spacingRight=4;overflow=hidden;points=[[0,0.5],[1,0.5]];portConstraint=eastwest;rotatable=0;whiteSpace=wrap;html=1;fontSize=16;" parent="QUcN6Z3jNNsvw5x7lziE-1" vertex="1">
                    <mxGeometry y="60" width="250" height="30" as="geometry"/>
                </mxCell>
                <mxCell id="QUcN6Z3jNNsvw5x7lziE-5" value="Admin" style="text;strokeColor=none;fillColor=none;align=left;verticalAlign=middle;spacingLeft=4;spacingRight=4;overflow=hidden;points=[[0,0.5],[1,0.5]];portConstraint=eastwest;rotatable=0;whiteSpace=wrap;html=1;fontSize=16;" parent="QUcN6Z3jNNsvw5x7lziE-1" vertex="1">
                    <mxGeometry y="90" width="250" height="30" as="geometry"/>
                </mxCell>
                <mxCell id="QUcN6Z3jNNsvw5x7lziE-4" style="edgeStyle=none;curved=1;rounded=0;orthogonalLoop=1;jettySize=auto;html=1;entryX=0;entryY=0.25;entryDx=0;entryDy=0;fontSize=12;startSize=8;endSize=8;endArrow=none;endFill=0;" parent="1" source="-KwbOjn1HMiHlHddKkjQ-86" target="QUcN6Z3jNNsvw5x7lziE-1" edge="1">
                    <mxGeometry relative="1" as="geometry"/>
                </mxCell>
                <mxCell id="QUcN6Z3jNNsvw5x7lziE-6" value="" style="swimlane;startSize=0;fontSize=16;rotation=0;" parent="1" vertex="1">
                    <mxGeometry x="-2220" y="-253" width="1272" height="1192" as="geometry">
                        <mxRectangle x="-1963" y="-283" width="50" height="44" as="alternateBounds"/>
                    </mxGeometry>
                </mxCell>
                <mxCell id="QUcN6Z3jNNsvw5x7lziE-28" value="CoastCenter" style="swimlane;fontStyle=0;childLayout=stackLayout;horizontal=1;startSize=30;horizontalStack=0;resizeParent=1;resizeParentMax=0;resizeLast=0;collapsible=1;marginBottom=0;whiteSpace=wrap;html=1;fontSize=16;" parent="QUcN6Z3jNNsvw5x7lziE-6" vertex="1">
                    <mxGeometry x="315" y="273" width="250" height="150" as="geometry"/>
                </mxCell>
                <mxCell id="QUcN6Z3jNNsvw5x7lziE-29" value="CoastCenterId : string" style="text;strokeColor=none;fillColor=none;align=left;verticalAlign=middle;spacingLeft=4;spacingRight=4;overflow=hidden;points=[[0,0.5],[1,0.5]];portConstraint=eastwest;rotatable=0;whiteSpace=wrap;html=1;fontSize=16;" parent="QUcN6Z3jNNsvw5x7lziE-28" vertex="1">
                    <mxGeometry y="30" width="250" height="30" as="geometry"/>
                </mxCell>
                <mxCell id="QUcN6Z3jNNsvw5x7lziE-30" value="Code : string UQ" style="text;strokeColor=none;fillColor=none;align=left;verticalAlign=middle;spacingLeft=4;spacingRight=4;overflow=hidden;points=[[0,0.5],[1,0.5]];portConstraint=eastwest;rotatable=0;whiteSpace=wrap;html=1;fontSize=16;" parent="QUcN6Z3jNNsvw5x7lziE-28" vertex="1">
                    <mxGeometry y="60" width="250" height="30" as="geometry"/>
                </mxCell>
                <mxCell id="QUcN6Z3jNNsvw5x7lziE-31" value="ManagerId : string" style="text;strokeColor=none;fillColor=none;align=left;verticalAlign=middle;spacingLeft=4;spacingRight=4;overflow=hidden;points=[[0,0.5],[1,0.5]];portConstraint=eastwest;rotatable=0;whiteSpace=wrap;html=1;fontSize=16;" parent="QUcN6Z3jNNsvw5x7lziE-28" vertex="1">
                    <mxGeometry y="90" width="250" height="30" as="geometry"/>
                </mxCell>
                <mxCell id="i9owRUiu1ZoD4XfDXR24-1" value="DepartmentId: string" style="text;strokeColor=none;fillColor=none;align=left;verticalAlign=middle;spacingLeft=4;spacingRight=4;overflow=hidden;points=[[0,0.5],[1,0.5]];portConstraint=eastwest;rotatable=0;whiteSpace=wrap;html=1;fontSize=16;" parent="QUcN6Z3jNNsvw5x7lziE-28" vertex="1">
                    <mxGeometry y="120" width="250" height="30" as="geometry"/>
                </mxCell>
                <mxCell id="QUcN6Z3jNNsvw5x7lziE-36" value="1" style="text;html=1;strokeColor=none;fillColor=none;align=center;verticalAlign=middle;whiteSpace=wrap;rounded=0;fontSize=16;" parent="QUcN6Z3jNNsvw5x7lziE-6" vertex="1">
                    <mxGeometry x="244" y="343" width="60" height="30" as="geometry"/>
                </mxCell>
                <mxCell id="QUcN6Z3jNNsvw5x7lziE-37" value="????" style="swimlane;fontStyle=0;childLayout=stackLayout;horizontal=1;startSize=30;horizontalStack=0;resizeParent=1;resizeParentMax=0;resizeLast=0;collapsible=1;marginBottom=0;whiteSpace=wrap;html=1;fontSize=16;" parent="QUcN6Z3jNNsvw5x7lziE-6" vertex="1">
                    <mxGeometry x="750" y="249" width="140" height="60" as="geometry"/>
                </mxCell>
                <mxCell id="QUcN6Z3jNNsvw5x7lziE-38" value="?????" style="text;strokeColor=none;fillColor=none;align=left;verticalAlign=middle;spacingLeft=4;spacingRight=4;overflow=hidden;points=[[0,0.5],[1,0.5]];portConstraint=eastwest;rotatable=0;whiteSpace=wrap;html=1;fontSize=16;" parent="QUcN6Z3jNNsvw5x7lziE-37" vertex="1">
                    <mxGeometry y="30" width="140" height="30" as="geometry"/>
                </mxCell>
                <mxCell id="QUcN6Z3jNNsvw5x7lziE-48" value="1" style="text;html=1;strokeColor=none;fillColor=none;align=center;verticalAlign=middle;whiteSpace=wrap;rounded=0;fontSize=16;" parent="QUcN6Z3jNNsvw5x7lziE-6" vertex="1">
                    <mxGeometry x="576" y="303" width="60" height="30" as="geometry"/>
                </mxCell>
                <mxCell id="QUcN6Z3jNNsvw5x7lziE-11" value="" style="swimlane;startSize=0;fontSize=16;rotation=0;" parent="1" vertex="1">
                    <mxGeometry x="-3783" y="-253" width="1272" height="1192" as="geometry">
                        <mxRectangle x="-3783" y="-253" width="50" height="44" as="alternateBounds"/>
                    </mxGeometry>
                </mxCell>
                <mxCell id="QUcN6Z3jNNsvw5x7lziE-35" value="n" style="text;html=1;strokeColor=none;fillColor=none;align=center;verticalAlign=middle;whiteSpace=wrap;rounded=0;fontSize=16;" parent="QUcN6Z3jNNsvw5x7lziE-11" vertex="1">
                    <mxGeometry x="849" y="501" width="60" height="30" as="geometry"/>
                </mxCell>
                <mxCell id="-KwbOjn1HMiHlHddKkjQ-87" value="Manager" style="swimlane;fontStyle=0;childLayout=stackLayout;horizontal=1;startSize=30;horizontalStack=0;resizeParent=1;resizeParentMax=0;resizeLast=0;collapsible=1;marginBottom=0;whiteSpace=wrap;html=1;fontSize=16;" parent="QUcN6Z3jNNsvw5x7lziE-11" vertex="1">
                    <mxGeometry x="715" y="493" width="140" height="60" as="geometry"/>
                </mxCell>
                <mxCell id="-KwbOjn1HMiHlHddKkjQ-93" value="Admin" style="swimlane;fontStyle=0;childLayout=stackLayout;horizontal=1;startSize=30;horizontalStack=0;resizeParent=1;resizeParentMax=0;resizeLast=0;collapsible=1;marginBottom=0;whiteSpace=wrap;html=1;fontSize=16;" parent="QUcN6Z3jNNsvw5x7lziE-11" vertex="1">
                    <mxGeometry x="326" y="751" width="140" height="60" as="geometry"/>
                </mxCell>
                <mxCell id="QUcN6Z3jNNsvw5x7lziE-44" style="edgeStyle=none;curved=1;rounded=0;orthogonalLoop=1;jettySize=auto;html=1;exitX=0.75;exitY=0;exitDx=0;exitDy=0;fontSize=12;startSize=8;endSize=8;" parent="QUcN6Z3jNNsvw5x7lziE-11" source="-KwbOjn1HMiHlHddKkjQ-93" target="-KwbOjn1HMiHlHddKkjQ-93" edge="1">
                    <mxGeometry relative="1" as="geometry"/>
                </mxCell>
                <mxCell id="QUcN6Z3jNNsvw5x7lziE-51" value="1" style="text;html=1;strokeColor=none;fillColor=none;align=center;verticalAlign=middle;whiteSpace=wrap;rounded=0;fontSize=16;" parent="QUcN6Z3jNNsvw5x7lziE-11" vertex="1">
                    <mxGeometry x="486" y="747" width="60" height="30" as="geometry"/>
                </mxCell>
                <mxCell id="QUcN6Z3jNNsvw5x7lziE-12" value="" style="swimlane;startSize=0;fontSize=16;rotation=0;" parent="1" vertex="1">
                    <mxGeometry x="-731" y="-266" width="1272" height="1192" as="geometry">
                        <mxRectangle x="-1963" y="-283" width="50" height="44" as="alternateBounds"/>
                    </mxGeometry>
                </mxCell>
                <mxCell id="QUcN6Z3jNNsvw5x7lziE-49" value="n" style="text;html=1;strokeColor=none;fillColor=none;align=center;verticalAlign=middle;whiteSpace=wrap;rounded=0;fontSize=16;" parent="QUcN6Z3jNNsvw5x7lziE-12" vertex="1">
                    <mxGeometry x="1" y="336" width="60" height="30" as="geometry"/>
                </mxCell>
                <mxCell id="QUcN6Z3jNNsvw5x7lziE-54" value="n" style="text;html=1;strokeColor=none;fillColor=none;align=center;verticalAlign=middle;whiteSpace=wrap;rounded=0;fontSize=16;" parent="QUcN6Z3jNNsvw5x7lziE-12" vertex="1">
                    <mxGeometry x="319" y="670" width="60" height="30" as="geometry"/>
                </mxCell>
                <mxCell id="QUcN6Z3jNNsvw5x7lziE-34" style="edgeStyle=none;curved=1;rounded=0;orthogonalLoop=1;jettySize=auto;html=1;entryX=1;entryY=0.75;entryDx=0;entryDy=0;fontSize=12;startSize=8;endSize=8;endArrow=ERmany;endFill=0;exitX=0.001;exitY=0.698;exitDx=0;exitDy=0;exitPerimeter=0;" parent="1" source="QUcN6Z3jNNsvw5x7lziE-31" target="-KwbOjn1HMiHlHddKkjQ-87" edge="1">
                    <mxGeometry relative="1" as="geometry"/>
                </mxCell>
                <mxCell id="QUcN6Z3jNNsvw5x7lziE-42" style="edgeStyle=none;curved=1;rounded=0;orthogonalLoop=1;jettySize=auto;html=1;entryX=0;entryY=0.5;entryDx=0;entryDy=0;fontSize=12;startSize=8;endSize=8;endArrow=ERmany;endFill=0;" parent="1" source="QUcN6Z3jNNsvw5x7lziE-28" target="-KwbOjn1HMiHlHddKkjQ-2" edge="1">
                    <mxGeometry relative="1" as="geometry"/>
                </mxCell>
                <mxCell id="QUcN6Z3jNNsvw5x7lziE-46" style="edgeStyle=elbowEdgeStyle;rounded=0;orthogonalLoop=1;jettySize=auto;html=1;exitX=1;exitY=0.5;exitDx=0;exitDy=0;entryX=0.488;entryY=1.406;entryDx=0;entryDy=0;entryPerimeter=0;fontSize=12;startSize=8;endSize=8;elbow=vertical;" parent="1" source="-KwbOjn1HMiHlHddKkjQ-93" target="-KwbOjn1HMiHlHddKkjQ-86" edge="1">
                    <mxGeometry relative="1" as="geometry"/>
                </mxCell>
                <mxCell id="QUcN6Z3jNNsvw5x7lziE-47" style="edgeStyle=elbowEdgeStyle;rounded=0;orthogonalLoop=1;jettySize=auto;html=1;entryX=0.44;entryY=1.128;entryDx=0;entryDy=0;entryPerimeter=0;fontSize=12;startSize=8;endSize=8;elbow=vertical;" parent="1" source="-KwbOjn1HMiHlHddKkjQ-87" target="-KwbOjn1HMiHlHddKkjQ-86" edge="1">
                    <mxGeometry relative="1" as="geometry"/>
                </mxCell>
                <mxCell id="QUcN6Z3jNNsvw5x7lziE-50" style="edgeStyle=none;curved=1;rounded=0;orthogonalLoop=1;jettySize=auto;html=1;entryX=0;entryY=0.5;entryDx=0;entryDy=0;fontSize=12;startSize=8;endSize=8;endArrow=ERmany;endFill=0;" parent="1" source="-KwbOjn1HMiHlHddKkjQ-93" target="-KwbOjn1HMiHlHddKkjQ-26" edge="1">
                    <mxGeometry relative="1" as="geometry"/>
                </mxCell>
                <mxCell id="_R0ADvPiKnRiLvJnEYwu-3" value="&lt;font style=&quot;font-size: 30px;&quot;&gt;***Deve ter um fluxo de aprovação global&lt;/font&gt;" style="text;html=1;strokeColor=none;fillColor=none;align=center;verticalAlign=middle;whiteSpace=wrap;rounded=0;fontSize=16;" parent="1" vertex="1">
                    <mxGeometry x="-974" y="-457" width="307" height="139" as="geometry"/>
                </mxCell>
            </root>
        </mxGraphModel>
    </diagram>
</mxfile>